<?xml version="1.0" standalone="no"?>
<!DOCTYPE svg PUBLIC "-//W3C//DTD SVG 20010904//EN"
 "http://www.w3.org/TR/2001/REC-SVG-20010904/DTD/svg10.dtd">
<svg version="1.0" xmlns="http://www.w3.org/2000/svg"
 width="160.000000pt" height="52.000000pt" viewBox="0 0 160.000000 52.000000"
 preserveAspectRatio="xMidYMid meet">
<g transform="translate(0.000000,52.000000) scale(0.100000,-0.100000)"
fill="#000000" stroke="none">
<path d="M0 423 l0 -98 24 50 c28 60 66 97 126 124 l45 21 -97 0 -98 0 0 -97z"/>
<path d="M378 494 c93 -46 142 -127 142 -234 0 -107 -49 -188 -142 -234 l-52
-26 637 0 637 0 0 260 0 260 -637 0 -637 0 52 -26z m422 -139 l0 -35 -50 0
c-38 0 -50 -4 -50 -15 0 -11 12 -15 45 -15 45 0 45 0 45 -35 0 -35 0 -35 -45
-35 l-45 0 0 -55 0 -55 -40 0 -40 0 0 140 0 140 90 0 90 0 0 -35z m390 -105
l0 -140 -39 0 c-21 0 -52 -3 -69 -6 -43 -9 -69 20 -77 90 -6 43 -3 63 11 93
17 34 23 38 57 38 35 0 37 2 37 33 0 31 2 32 40 32 l40 0 0 -140z m-300 0 c0
-47 4 -80 10 -80 6 0 10 33 10 80 l0 80 40 0 40 0 0 -109 0 -108 -72 -6 c-106
-9 -108 -7 -108 118 l0 105 40 0 40 0 0 -80z m505 -47 c0 -112 -2 -124 -21
-144 -17 -16 -34 -21 -73 -21 -56 0 -81 14 -81 44 0 17 6 19 47 16 40 -2 48 0
51 15 3 16 1 17 -18 7 -55 -29 -90 13 -90 108 0 89 13 101 108 99 l77 -2 0
-122z m174 101 c13 -17 21 -41 21 -65 l0 -39 -50 0 c-43 0 -50 -3 -50 -20 0
-23 18 -27 26 -5 4 9 19 15 40 15 28 0 34 -4 34 -20 0 -64 -107 -94 -155 -45
-22 21 -25 33 -25 90 0 57 3 69 25 90 35 36 105 35 134 -1z"/>
<path d="M1086 254 c-13 -35 -2 -99 15 -88 5 3 9 25 9 49 0 45 -13 67 -24 39z"/>
<path d="M1297 263 c-10 -10 -8 -81 2 -87 18 -12 29 56 13 82 -5 7 -11 9 -15
5z"/>
<path d="M1495 270 c-8 -13 -1 -24 14 -19 6 3 7 10 2 18 -6 10 -10 10 -16 1z"/>
<path d="M395 340 c-60 -24 -76 -93 -32 -137 51 -52 140 -16 140 57 0 52 -63
99 -108 80z"/>
<path d="M205 295 c-14 -13 -25 -29 -25 -35 0 -14 46 -60 60 -60 6 0 22 11 35
25 14 13 25 29 25 35 0 14 -46 60 -60 60 -6 0 -22 -11 -35 -25z"/>
<path d="M106 274 c-17 -16 -12 -40 9 -48 19 -7 46 20 39 39 -8 21 -32 26 -48
9z"/>
<path d="M21 266 c-9 -10 -8 -16 3 -25 10 -9 16 -8 25 3 9 10 8 16 -3 25 -10
9 -16 8 -25 -3z"/>
<path d="M0 98 l0 -98 98 0 97 0 -40 19 c-61 28 -105 70 -131 126 l-24 50 0
-97z"/>
</g>
</svg>
